<svg width="7" height="14" viewBox="0 0 7 14" fill="none" xmlns="http://www.w3.org/2000/svg">
<path d="M3.75 13.18C1.64 13.18 0.585 12.02 0.585 9.7V9.28H2.64V9.64C2.66 10.26 2.745 10.715 2.895 11.005C3.055 11.295 3.345 11.44 3.765 11.44C4.195 11.44 4.485 11.29 4.635 10.99C4.785 10.68 4.86 10.195 4.86 9.535C4.86 8.875 4.755 8.375 4.545 8.035C4.335 7.695 3.965 7.51 3.435 7.48H3.09V5.815H3.405C3.945 5.805 4.32 5.66 4.53 5.38C4.75 5.1 4.86 4.64 4.86 4C4.86 3.45 4.775 3.04 4.605 2.77C4.445 2.5 4.155 2.365 3.735 2.365C3.325 2.365 3.045 2.51 2.895 2.8C2.745 3.09 2.66 3.52 2.64 4.09V4.525H0.585V3.955C0.585 2.915 0.855 2.115 1.395 1.555C1.945 0.984999 2.725 0.699999 3.735 0.699999C4.765 0.699999 5.55 0.979999 6.09 1.54C6.64 2.09 6.915 2.88 6.915 3.91C6.915 4.62 6.765 5.21 6.465 5.68C6.175 6.14 5.79 6.44 5.31 6.58C5.81 6.75 6.2 7.075 6.48 7.555C6.77 8.025 6.915 8.67 6.915 9.49C6.915 10.65 6.66 11.555 6.15 12.205C5.65 12.855 4.85 13.18 3.75 13.18Z" fill="white"/>
</svg>
