<svg width="70" height="74" viewBox="0 0 70 74" fill="none" xmlns="http://www.w3.org/2000/svg">
<g filter="url(#filter0_d)">
<path d="M20.0339 4.66669C19.4365 4.66669 18.8391 4.89528 18.3841 5.35028L5.35027 18.3841C4.43793 19.2965 4.43793 20.7736 5.35027 21.6836L18.8672 35.2005L22.1667 31.9011L10.2995 20.0339L20.0339 10.2995L23.0508 13.3164L20.0339 16.3334L23.3333 19.6328L26.3503 16.6159L28.8841 19.1498L24.0169 24.0169L27.0339 27.0339L35.2005 18.8672L32.1836 15.8503L21.6836 5.35028C21.2286 4.89528 20.6312 4.66669 20.0339 4.66669ZM55.5944 7.00002C54.4015 7.00119 53.2061 7.4606 52.2949 8.37177L49 11.6667L58.3333 21L61.6283 17.7051C63.4506 15.8828 63.4551 12.933 61.6328 11.1107L58.8893 8.36721C57.9782 7.45604 56.7873 6.99885 55.5944 7.00002ZM44.3333 16.3334L12.2044 48.4623L15.1667 50.1667L16.3333 53.6667L19.8333 54.8334L21.5378 57.7956L53.6667 25.6667L44.3333 16.3334ZM51.1328 34.7995L42.9661 42.9662L45.9831 45.9831L50.8503 41.1159L53.3841 43.6498L50.3672 46.6667L53.6667 49.9662L56.6836 46.9492L59.7005 49.9662L49.9661 59.7005L38.099 47.8334L34.7995 51.1328L48.3164 64.6498C48.7714 65.1048 49.3688 65.3334 49.9661 65.3334C50.5635 65.3334 51.1609 65.1048 51.6159 64.6498L64.6497 51.6159C65.5621 50.7059 65.5621 49.2288 64.6497 48.3164L54.1497 37.8164L51.1328 34.7995ZM9.08269 55.7494L7.08659 61.3867C7.0287 61.5285 6.99928 61.6802 7.00001 61.8334C7.00001 62.1428 7.12292 62.4395 7.34171 62.6583C7.56051 62.8771 7.85725 63 8.16667 63C8.31153 63.0007 8.45526 62.9745 8.5905 62.9226L14.2552 60.9219L9.08269 55.7494Z" fill="#4B1465"/>
</g>
<defs>
<filter id="filter0_d" x="-4" y="0" width="78" height="78" filterUnits="userSpaceOnUse" color-interpolation-filters="sRGB">
<feFlood flood-opacity="0" result="BackgroundImageFix"/>
<feColorMatrix in="SourceAlpha" type="matrix" values="0 0 0 0 0 0 0 0 0 0 0 0 0 0 0 0 0 0 127 0"/>
<feOffset dy="4"/>
<feGaussianBlur stdDeviation="2"/>
<feColorMatrix type="matrix" values="0 0 0 0 0 0 0 0 0 0 0 0 0 0 0 0 0 0 0.25 0"/>
<feBlend mode="normal" in2="BackgroundImageFix" result="effect1_dropShadow"/>
<feBlend mode="normal" in="SourceGraphic" in2="effect1_dropShadow" result="shape"/>
</filter>
</defs>
</svg>
