<svg width="70" height="76" viewBox="0 0 70 76" fill="none" xmlns="http://www.w3.org/2000/svg">
<g filter="url(#filter0_d)">
<path d="M18.6667 2.33331C16.0883 2.33331 14 4.42165 14 6.99998V63C14 65.5783 16.0883 67.6666 18.6667 67.6666H51.3333C53.9117 67.6666 56 65.5783 56 63V6.99998C56 4.42165 53.9117 2.33331 51.3333 2.33331H18.6667ZM31.5 4.66665H36.1667C36.8107 4.66665 37.3333 5.18931 37.3333 5.83331C37.3333 6.47731 36.8107 6.99998 36.1667 6.99998H31.5C30.856 6.99998 30.3333 6.47731 30.3333 5.83331C30.3333 5.18931 30.856 4.66665 31.5 4.66665ZM40.8333 4.66665C41.4773 4.66665 42 5.18931 42 5.83331C42 6.47731 41.4773 6.99998 40.8333 6.99998C40.1893 6.99998 39.6667 6.47731 39.6667 5.83331C39.6667 5.18931 40.1893 4.66665 40.8333 4.66665ZM18.6667 6.99998H25.6667L26.6328 7.96613C27.5078 8.84113 28.6956 9.33331 29.9323 9.33331H40.0677C41.3044 9.33331 42.4922 8.84113 43.3672 7.96613L44.3333 6.99998H51.3333V63H18.6667V6.99998ZM32.6667 23.3333V30.9622L26.0632 27.1478L23.7298 31.1855L30.3379 35L23.7298 38.8144L26.0632 42.8522L32.6667 39.0377V46.6666H37.3333V39.0377L43.9368 42.8522L46.2702 38.8144L39.6621 35L46.2702 31.1855L43.9368 27.1478L37.3333 30.9622V23.3333H32.6667Z" fill="#4B1465"/>
</g>
<defs>
<filter id="filter0_d" x="-4" y="0" width="78" height="78" filterUnits="userSpaceOnUse" color-interpolation-filters="sRGB">
<feFlood flood-opacity="0" result="BackgroundImageFix"/>
<feColorMatrix in="SourceAlpha" type="matrix" values="0 0 0 0 0 0 0 0 0 0 0 0 0 0 0 0 0 0 127 0"/>
<feOffset dy="4"/>
<feGaussianBlur stdDeviation="2"/>
<feColorMatrix type="matrix" values="0 0 0 0 0 0 0 0 0 0 0 0 0 0 0 0 0 0 0.25 0"/>
<feBlend mode="normal" in2="BackgroundImageFix" result="effect1_dropShadow"/>
<feBlend mode="normal" in="SourceGraphic" in2="effect1_dropShadow" result="shape"/>
</filter>
</defs>
</svg>
