<svg width="78" height="70" viewBox="0 0 78 70" fill="none" xmlns="http://www.w3.org/2000/svg">
<g filter="url(#filter0_d)">
<path d="M15.6667 11.6667C11.8284 11.6667 8.66667 14.8284 8.66667 18.6667V49C8.66667 50.7934 9.37629 52.4222 10.5033 53.6667H4C4 57.533 7.13367 60.6667 11 60.6667H67C70.8663 60.6667 74 57.533 74 53.6667H67.4967C68.6237 52.4222 69.3333 50.7934 69.3333 49V18.6667C69.3333 14.8284 66.1716 11.6667 62.3333 11.6667H15.6667ZM15.6667 16.3334H62.3333C63.6517 16.3334 64.6667 17.3483 64.6667 18.6667V49C64.6667 50.3184 63.6517 51.3334 62.3333 51.3334H15.6667C14.3483 51.3334 13.3333 50.3184 13.3333 49V18.6667C13.3333 17.3483 14.3483 16.3334 15.6667 16.3334ZM21.7962 26.1817L18.8568 29.8047C18.9874 29.9097 23.5536 32.0189 26.2533 38.6595C27.0863 40.7082 29.1409 42 31.3529 42C33.2149 42 34.9517 41.0679 35.9831 39.5209L36.5527 38.6686C37.7171 36.9233 40.2829 36.9233 41.4473 38.6686L42.0124 39.5209C43.0484 41.0679 44.7851 42 46.6471 42H46.6699C48.8726 42 50.9251 40.7193 51.7604 38.6823C54.5044 31.9926 59.0126 29.912 59.1432 29.8047L56.2038 26.1817C56.1524 26.2237 50.8067 30.3334 39 30.3334C27.1933 30.3334 21.8476 26.2237 21.7962 26.1817ZM32 32.6667C33.288 32.6667 34.3333 33.712 34.3333 35C34.3333 36.288 33.288 37.3334 32 37.3334C30.712 37.3334 29.6667 36.288 29.6667 35C29.6667 33.712 30.712 32.6667 32 32.6667ZM46 32.6667C47.288 32.6667 48.3333 33.712 48.3333 35C48.3333 36.288 47.288 37.3334 46 37.3334C44.712 37.3334 43.6667 36.288 43.6667 35C43.6667 33.712 44.712 32.6667 46 32.6667Z" fill="#4B1465"/>
</g>
<defs>
<filter id="filter0_d" x="0" y="0" width="78" height="78" filterUnits="userSpaceOnUse" color-interpolation-filters="sRGB">
<feFlood flood-opacity="0" result="BackgroundImageFix"/>
<feColorMatrix in="SourceAlpha" type="matrix" values="0 0 0 0 0 0 0 0 0 0 0 0 0 0 0 0 0 0 127 0"/>
<feOffset dy="4"/>
<feGaussianBlur stdDeviation="2"/>
<feColorMatrix type="matrix" values="0 0 0 0 0 0 0 0 0 0 0 0 0 0 0 0 0 0 0.25 0"/>
<feBlend mode="normal" in2="BackgroundImageFix" result="effect1_dropShadow"/>
<feBlend mode="normal" in="SourceGraphic" in2="effect1_dropShadow" result="shape"/>
</filter>
</defs>
</svg>
