<svg width="74" height="78" viewBox="0 0 74 78" fill="none" xmlns="http://www.w3.org/2000/svg">
<g clip-path="url(#clip0)" filter="url(#filter0_d)">
<path d="M9.33334 11.6667C6.755 11.6667 4.66667 13.755 4.66667 16.3334V53.6667C4.66667 56.245 6.755 58.3334 9.33334 58.3334H32.138C31.0204 57.0944 30.3333 55.4634 30.3333 53.6667C30.3333 52.8407 30.5208 52.0684 30.7845 51.3334H11.6667V37.3334L17.0078 31.9922C19.2128 29.7872 22.7872 29.7872 24.9922 31.9922L31.3724 38.3724C32.6044 36.3587 34.804 35 37.3333 35H49.8522C51.5322 33.5207 53.7157 32.6667 56 32.6667C58.2843 32.6667 60.4655 33.5207 62.1478 35H65.3333V16.3334C65.3333 13.755 63.245 11.6667 60.6667 11.6667H9.33334ZM53.6667 18.6667C56.245 18.6667 58.3333 20.755 58.3333 23.3334C58.3333 25.9117 56.245 28 53.6667 28C51.0883 28 49 25.9117 49 23.3334C49 20.755 51.0883 18.6667 53.6667 18.6667ZM56 37.3334C55.1815 37.334 54.3775 37.5499 53.6688 37.9595C52.96 38.369 52.3715 38.9578 51.9622 39.6667H37.3333C37.0241 39.6623 36.7172 39.7194 36.4302 39.8347C36.1433 39.95 35.8822 40.1212 35.662 40.3383C35.4418 40.5554 35.2669 40.8141 35.1476 41.0994C35.0282 41.3847 34.9668 41.6908 34.9668 42C34.9668 42.3092 35.0282 42.6154 35.1476 42.9007C35.2669 43.1859 35.4418 43.4446 35.662 43.6617C35.8822 43.8788 36.1433 44.05 36.4302 44.1653C36.7172 44.2806 37.0241 44.3377 37.3333 44.3334H51.9668C52.3757 45.0416 52.9635 45.6299 53.6713 46.0394C54.3792 46.4489 55.1822 46.6652 56 46.6667C56.8185 46.666 57.6225 46.4501 58.3312 46.0405C59.04 45.631 59.6285 45.0422 60.0378 44.3334H67.6667C67.9759 44.3377 68.2828 44.2806 68.5698 44.1653C68.8567 44.05 69.1178 43.8788 69.338 43.6617C69.5582 43.4446 69.7331 43.1859 69.8524 42.9007C69.9718 42.6154 70.0332 42.3092 70.0332 42C70.0332 41.6908 69.9718 41.3847 69.8524 41.0994C69.7331 40.8141 69.5582 40.5554 69.338 40.3383C69.1178 40.1212 68.8567 39.95 68.5698 39.8347C68.2828 39.7194 67.9759 39.6623 67.6667 39.6667H60.0332C59.6243 38.9585 59.0365 38.3701 58.3287 37.9606C57.6208 37.5511 56.8178 37.3348 56 37.3334V37.3334ZM44.3333 49C43.5148 49.0007 42.7108 49.2166 42.0021 49.6262C41.2934 50.0357 40.7048 50.6245 40.2956 51.3334H37.3333C37.0241 51.329 36.7172 51.3861 36.4302 51.5014C36.1433 51.6167 35.8822 51.7879 35.662 52.005C35.4418 52.2221 35.2669 52.4808 35.1476 52.7661C35.0282 53.0513 34.9668 53.3575 34.9668 53.6667C34.9668 53.9759 35.0282 54.2821 35.1476 54.5673C35.2669 54.8526 35.4418 55.1113 35.662 55.3284C35.8822 55.5455 36.1433 55.7167 36.4302 55.832C36.7172 55.9473 37.0241 56.0044 37.3333 56H40.3001C40.709 56.7082 41.2968 57.2966 42.0047 57.7061C42.7125 58.1156 43.5156 58.3319 44.3333 58.3334C45.1519 58.3327 45.9559 58.1168 46.6646 57.7072C47.3733 57.2977 47.9618 56.7089 48.3711 56H67.6667C67.9759 56.0044 68.2828 55.9473 68.5698 55.832C68.8567 55.7167 69.1178 55.5455 69.338 55.3284C69.5582 55.1113 69.7331 54.8526 69.8524 54.5673C69.9718 54.2821 70.0332 53.9759 70.0332 53.6667C70.0332 53.3575 69.9718 53.0513 69.8524 52.7661C69.7331 52.4808 69.5582 52.2221 69.338 52.005C69.1178 51.7879 68.8567 51.6167 68.5698 51.5014C68.2828 51.3861 67.9759 51.329 67.6667 51.3334H48.3665C47.9577 50.6251 47.3698 50.0368 46.662 49.6273C45.9541 49.2178 45.1511 49.0015 44.3333 49V49ZM60.6667 60.6667C59.8481 60.6673 59.0441 60.8833 58.3354 61.2928C57.6267 61.7024 57.0382 62.2911 56.6289 63H37.3333C37.0241 62.9956 36.7172 63.0528 36.4302 63.1681C36.1433 63.2834 35.8822 63.4545 35.662 63.6716C35.4418 63.8887 35.2669 64.1475 35.1476 64.4327C35.0282 64.718 34.9668 65.0241 34.9668 65.3334C34.9668 65.6426 35.0282 65.9487 35.1476 66.234C35.2669 66.5193 35.4418 66.778 35.662 66.9951C35.8822 67.2122 36.1433 67.3833 36.4302 67.4986C36.7172 67.6139 37.0241 67.6711 37.3333 67.6667H56.6335C57.0424 68.3749 57.6302 68.9632 58.338 69.3727C59.0459 69.7823 59.8489 69.9986 60.6667 70C61.4852 69.9994 62.2892 69.7834 62.9979 69.3739C63.7066 68.9643 64.2952 68.3756 64.7044 67.6667H67.6667C67.9759 67.6711 68.2828 67.6139 68.5698 67.4986C68.8567 67.3833 69.1178 67.2122 69.338 66.9951C69.5582 66.778 69.7331 66.5193 69.8524 66.234C69.9718 65.9487 70.0332 65.6426 70.0332 65.3334C70.0332 65.0241 69.9718 64.718 69.8524 64.4327C69.7331 64.1475 69.5582 63.8887 69.338 63.6716C69.1178 63.4545 68.8567 63.2834 68.5698 63.1681C68.2828 63.0528 67.9759 62.9956 67.6667 63H64.6999C64.291 62.2918 63.7032 61.7035 62.9953 61.294C62.2875 60.8844 61.4844 60.6681 60.6667 60.6667V60.6667Z" fill="white"/>
</g>
<defs>
<filter id="filter0_d" x="-4" y="0" width="78" height="78" filterUnits="userSpaceOnUse" color-interpolation-filters="sRGB">
<feFlood flood-opacity="0" result="BackgroundImageFix"/>
<feColorMatrix in="SourceAlpha" type="matrix" values="0 0 0 0 0 0 0 0 0 0 0 0 0 0 0 0 0 0 127 0"/>
<feOffset dy="4"/>
<feGaussianBlur stdDeviation="2"/>
<feColorMatrix type="matrix" values="0 0 0 0 0 0 0 0 0 0 0 0 0 0 0 0 0 0 0.25 0"/>
<feBlend mode="normal" in2="BackgroundImageFix" result="effect1_dropShadow"/>
<feBlend mode="normal" in="SourceGraphic" in2="effect1_dropShadow" result="shape"/>
</filter>
<clipPath id="clip0">
<rect width="70" height="70" fill="white"/>
</clipPath>
</defs>
</svg>
