<svg width="70" height="71" viewBox="0 0 70 71" fill="none" xmlns="http://www.w3.org/2000/svg">
<g filter="url(#filter0_d)">
<path d="M9.33333 7C8.71451 7.00006 8.12106 7.24591 7.68349 7.68349C7.24591 8.12106 7.00006 8.71451 7 9.33333V16.3333H11.6667V11.6667H16.3333V7H9.33333ZM53.6667 7V11.6667H58.3333V16.3333H63V9.33333C62.9999 8.71451 62.7541 8.12106 62.3165 7.68349C61.8789 7.24591 61.2855 7.00006 60.6667 7H53.6667ZM35 18.6667C33.1435 18.6667 31.363 19.4042 30.0503 20.7169C28.7375 22.0297 28 23.8102 28 25.6667C28 27.5232 28.7375 29.3037 30.0503 30.6164C31.363 31.9292 33.1435 32.6667 35 32.6667C36.8565 32.6667 38.637 31.9292 39.9497 30.6164C41.2625 29.3037 42 27.5232 42 25.6667C42 23.8102 41.2625 22.0297 39.9497 20.7169C38.637 19.4042 36.8565 18.6667 35 18.6667V18.6667ZM17.5 23.3333C15.9529 23.3333 14.4692 23.9479 13.3752 25.0419C12.2812 26.1358 11.6667 27.6196 11.6667 29.1667C11.6667 30.7138 12.2812 32.1975 13.3752 33.2915C14.4692 34.3854 15.9529 35 17.5 35C19.0471 35 20.5308 34.3854 21.6248 33.2915C22.7188 32.1975 23.3333 30.7138 23.3333 29.1667C23.3333 27.6196 22.7188 26.1358 21.6248 25.0419C20.5308 23.9479 19.0471 23.3333 17.5 23.3333ZM52.5 23.3333C50.9529 23.3333 49.4692 23.9479 48.3752 25.0419C47.2812 26.1358 46.6667 27.6196 46.6667 29.1667C46.6667 30.7138 47.2812 32.1975 48.3752 33.2915C49.4692 34.3854 50.9529 35 52.5 35C54.0471 35 55.5308 34.3854 56.6248 33.2915C57.7188 32.1975 58.3333 30.7138 58.3333 29.1667C58.3333 27.6196 57.7188 26.1358 56.6248 25.0419C55.5308 23.9479 54.0471 23.3333 52.5 23.3333ZM30.3333 37.3333C26.467 37.3333 23.3333 40.467 23.3333 44.3333V46.6667H46.6667V44.3333C46.6667 40.467 43.533 37.3333 39.6667 37.3333H30.3333ZM15.1667 39.6667C11.9443 39.6667 9.33333 42.2777 9.33333 45.5V46.6667H18.6667V44.3333C18.6667 42.672 19.0256 41.0993 19.6556 39.6667H15.1667ZM50.3444 39.6667C50.9744 41.0993 51.3333 42.672 51.3333 44.3333V46.6667H60.6667V45.5C60.6667 42.2777 58.0557 39.6667 54.8333 39.6667H50.3444ZM7 53.6667V60.6667C7.00006 61.2855 7.24591 61.8789 7.68349 62.3165C8.12106 62.7541 8.71451 62.9999 9.33333 63H16.3333V58.3333H11.6667V53.6667H7ZM58.3333 53.6667V58.3333H53.6667V63H60.6667C61.2855 62.9999 61.8789 62.7541 62.3165 62.3165C62.7541 61.8789 62.9999 61.2855 63 60.6667V53.6667H58.3333Z" fill="white"/>
</g>
<defs>
<filter id="filter0_d" x="-4" y="0" width="78" height="78" filterUnits="userSpaceOnUse" color-interpolation-filters="sRGB">
<feFlood flood-opacity="0" result="BackgroundImageFix"/>
<feColorMatrix in="SourceAlpha" type="matrix" values="0 0 0 0 0 0 0 0 0 0 0 0 0 0 0 0 0 0 127 0"/>
<feOffset dy="4"/>
<feGaussianBlur stdDeviation="2"/>
<feColorMatrix type="matrix" values="0 0 0 0 0 0 0 0 0 0 0 0 0 0 0 0 0 0 0.25 0"/>
<feBlend mode="normal" in2="BackgroundImageFix" result="effect1_dropShadow"/>
<feBlend mode="normal" in="SourceGraphic" in2="effect1_dropShadow" result="shape"/>
</filter>
</defs>
</svg>
