<svg width="70" height="78" viewBox="0 0 70 78" fill="none" xmlns="http://www.w3.org/2000/svg">
<g clip-path="url(#clip0)" filter="url(#filter0_d)">
<path d="M7 11.6667C5.712 11.6667 4.66666 12.712 4.66666 14V56C4.66666 57.288 5.712 58.3334 7 58.3334H30.3333L25.6667 53.6667H9.33333V16.3334H60.6667V53.6667H49L53.6667 58.3334H63C64.288 58.3334 65.3333 57.288 65.3333 56V14C65.3333 12.712 64.288 11.6667 63 11.6667H7ZM14 21V25.6667H18.6667V21H14ZM23.3333 21V25.6667H28V21H23.3333ZM32.6667 21V25.6667H37.3333V21H32.6667ZM42 21V25.6667H46.6667V21H42ZM51.3333 21V25.6667H56V21H51.3333ZM21.556 37.3334C21.4043 37.3444 21.2625 37.4127 21.1593 37.5244C21.056 37.6361 20.9991 37.7828 21 37.9349C21.0001 38.0049 21.0124 38.0743 21.0365 38.14C21.038 38.143 21.0395 38.1461 21.041 38.1491L22.3809 41.9499L25.6165 38.7188L21.8431 37.3835L21.834 37.3789C21.8325 37.3789 21.8309 37.3789 21.8294 37.3789C21.7572 37.349 21.6798 37.3335 21.6016 37.3334C21.5864 37.3328 21.5712 37.3328 21.556 37.3334V37.3334ZM30.5977 40.9336L30.0007 42.7337L26.9974 43.3353L26.4004 46.334L24.6003 46.9356L42.8659 65.2012L48.8678 59.1992L30.5977 40.9336ZM14 44.3334V49H18.6667V44.3334H14ZM42 44.3334L46.6667 49V44.3334H42ZM51.3333 44.3334V49H56V44.3334H51.3333ZM51.265 61.6009L45.2676 67.6029L46.9629 69.2982C47.9009 70.2362 49.4178 70.2362 50.3535 69.2982L52.9603 66.6914C53.8983 65.7534 53.8983 64.2365 52.9603 63.3008L51.265 61.6009Z" fill="white"/>
</g>
<defs>
<filter id="filter0_d" x="-4" y="0" width="78" height="78" filterUnits="userSpaceOnUse" color-interpolation-filters="sRGB">
<feFlood flood-opacity="0" result="BackgroundImageFix"/>
<feColorMatrix in="SourceAlpha" type="matrix" values="0 0 0 0 0 0 0 0 0 0 0 0 0 0 0 0 0 0 127 0"/>
<feOffset dy="4"/>
<feGaussianBlur stdDeviation="2"/>
<feColorMatrix type="matrix" values="0 0 0 0 0 0 0 0 0 0 0 0 0 0 0 0 0 0 0.25 0"/>
<feBlend mode="normal" in2="BackgroundImageFix" result="effect1_dropShadow"/>
<feBlend mode="normal" in="SourceGraphic" in2="effect1_dropShadow" result="shape"/>
</filter>
<clipPath id="clip0">
<rect width="70" height="70" fill="white"/>
</clipPath>
</defs>
</svg>
