<svg width="70" height="71" viewBox="0 0 70 71" fill="none" xmlns="http://www.w3.org/2000/svg">
<g filter="url(#filter0_d)">
<path d="M35 7C24.6633 7 15.6358 12.6443 10.7871 21H16.3652C18.8012 17.7683 22.0488 15.1773 25.8125 13.5579C24.5898 15.6346 23.5706 18.1603 22.7819 21H27.6992C29.5426 15.2623 32.361 11.6667 35 11.6667C37.639 11.6667 40.4574 15.2623 42.3008 21H47.2181C46.4294 18.1603 45.4102 15.6346 44.1875 13.5579C47.9535 15.1773 51.2033 17.7683 53.6393 21H59.2129C54.3619 12.6443 45.3367 7 35 7ZM5.09961 28L8.75911 42H12.1133L14.4147 33.4232H14.5879L16.9258 42H20.2617L23.9212 28H20.2526L18.4206 37.2832H18.2428L15.9232 28H13.0749L10.8327 37.2832H10.6549L8.79557 28H5.09961ZM25.5892 28L29.2441 42H32.6029L34.9043 33.4232H35.0775L37.4154 42H40.7559L44.4108 28H40.7467L38.9102 37.2832H38.737L36.4173 28H33.5645L31.3223 37.2832H31.1445L29.2852 28H25.5892ZM46.0788 28L49.7383 42H53.097L55.3939 33.4232H55.5671L57.9049 42H61.2409L64.9004 28H61.2318L59.3997 37.2832H59.2266L56.9069 28H54.054L51.8118 37.2832H51.6387L49.7747 28H46.0788ZM10.7871 49C15.6358 57.3557 24.6633 63 35 63C45.3367 63 54.3642 57.3557 59.2129 49H53.6393C51.2033 52.2317 47.9557 54.8227 44.1921 56.4421C45.4147 54.3654 46.4294 51.8397 47.2181 49H42.3008C40.4598 54.7377 37.6436 58.3333 35.0046 58.3333C32.3656 58.3333 29.5471 54.7377 27.7038 49H22.7819C23.5706 51.8397 24.5898 54.3654 25.8125 56.4421C22.0465 54.8227 18.8012 52.2317 16.3652 49H10.7871Z" fill="#4B1465"/>
</g>
<defs>
<filter id="filter0_d" x="-4" y="0" width="78" height="78" filterUnits="userSpaceOnUse" color-interpolation-filters="sRGB">
<feFlood flood-opacity="0" result="BackgroundImageFix"/>
<feColorMatrix in="SourceAlpha" type="matrix" values="0 0 0 0 0 0 0 0 0 0 0 0 0 0 0 0 0 0 127 0"/>
<feOffset dy="4"/>
<feGaussianBlur stdDeviation="2"/>
<feColorMatrix type="matrix" values="0 0 0 0 0 0 0 0 0 0 0 0 0 0 0 0 0 0 0.25 0"/>
<feBlend mode="normal" in2="BackgroundImageFix" result="effect1_dropShadow"/>
<feBlend mode="normal" in="SourceGraphic" in2="effect1_dropShadow" result="shape"/>
</filter>
</defs>
</svg>
